<svg width="512" height="512" viewBox="0 0 512 512" fill="none" xmlns="http://www.w3.org/2000/svg">
<path d="M96 0H416C432.974 0 449.252 6.74284 461.255 18.7452C473.257 30.7475 480 47.0261 480 64V448C480 464.974 473.257 481.252 461.255 493.255C449.252 505.257 432.974 512 416 512H96C79.0261 512 62.7475 505.257 50.7452 493.255C38.7428 481.252 32 464.974 32 448V416H64V448C64 456.487 67.3714 464.626 73.3726 470.627C79.3737 476.629 87.5131 480 96 480H416C424.487 480 432.626 476.629 438.627 470.627C444.629 464.626 448 456.487 448 448V64C448 55.5131 444.629 47.3737 438.627 41.3726C432.626 35.3714 424.487 32 416 32H96C87.5131 32 79.3737 35.3714 73.3726 41.3726C67.3714 47.3737 64 55.5131 64 64V96H32V64C32 47.0261 38.7428 30.7475 50.7452 18.7452C62.7475 6.74284 79.0261 0 96 0V0Z" fill="black"/>
<path d="M32 160V144C32 139.757 33.6857 135.687 36.6863 132.686C39.6869 129.686 43.7565 128 48 128C52.2435 128 56.3131 129.686 59.3137 132.686C62.3143 135.687 64 139.757 64 144V160H80C84.2435 160 88.3131 161.686 91.3137 164.686C94.3143 167.687 96 171.757 96 176C96 180.243 94.3143 184.313 91.3137 187.314C88.3131 190.314 84.2435 192 80 192H16C11.7565 192 7.68687 190.314 4.68629 187.314C1.68571 184.313 0 180.243 0 176C0 171.757 1.68571 167.687 4.68629 164.686C7.68687 161.686 11.7565 160 16 160H32ZM32 256V240C32 235.757 33.6857 231.687 36.6863 228.686C39.6869 225.686 43.7565 224 48 224C52.2435 224 56.3131 225.686 59.3137 228.686C62.3143 231.687 64 235.757 64 240V256H80C84.2435 256 88.3131 257.686 91.3137 260.686C94.3143 263.687 96 267.757 96 272C96 276.243 94.3143 280.313 91.3137 283.314C88.3131 286.314 84.2435 288 80 288H16C11.7565 288 7.68687 286.314 4.68629 283.314C1.68571 280.313 0 276.243 0 272C0 267.757 1.68571 263.687 4.68629 260.686C7.68687 257.686 11.7565 256 16 256H32ZM32 352V336C32 331.757 33.6857 327.687 36.6863 324.686C39.6869 321.686 43.7565 320 48 320C52.2435 320 56.3131 321.686 59.3137 324.686C62.3143 327.687 64 331.757 64 336V352H80C84.2435 352 88.3131 353.686 91.3137 356.686C94.3143 359.687 96 363.757 96 368C96 372.243 94.3143 376.313 91.3137 379.314C88.3131 382.314 84.2435 384 80 384H16C11.7565 384 7.68687 382.314 4.68629 379.314C1.68571 376.313 0 372.243 0 368C0 363.757 1.68571 359.687 4.68629 356.686C7.68687 353.686 11.7565 352 16 352H32Z" fill="black"/>
<path d="M255.5 257.5C272.406 257.5 288.62 250.811 300.576 238.903C312.532 226.995 319.25 210.843 319.25 194C319.25 177.157 312.532 161.005 300.576 149.097C288.62 137.189 272.406 130.5 255.5 130.5C238.594 130.5 222.38 137.189 210.424 149.097C198.468 161.005 191.75 177.157 191.75 194C191.75 210.843 198.468 226.995 210.424 238.903C222.38 250.811 238.594 257.5 255.5 257.5ZM295.5 194C295.5 204.563 291.287 214.694 283.786 222.164C276.285 229.635 266.111 233.833 255.5 233.833C244.889 233.833 234.715 229.635 227.214 222.164C219.713 214.694 215.5 204.563 215.5 194C215.5 183.437 219.713 173.306 227.214 165.836C234.715 158.365 244.889 154.167 255.5 154.167C266.111 154.167 276.285 158.365 283.786 165.836C291.287 173.306 295.5 183.437 295.5 194ZM151.75 380V381.5H359.25V380C359.25 381.5 359.251 381.5 359.252 381.5H359.254L359.26 381.5L359.277 381.5L359.334 381.499C359.381 381.498 359.448 381.497 359.533 381.494C359.702 381.489 359.944 381.477 360.248 381.456C360.855 381.413 361.713 381.327 362.738 381.157C364.781 380.818 367.528 380.137 370.294 378.759C373.065 377.379 375.883 375.285 378.004 372.116C380.133 368.936 381.5 364.764 381.5 359.333C381.5 348.613 376.162 327.56 357.715 309.187C339.224 290.771 307.69 275.167 255.5 275.167C203.31 275.167 171.776 290.771 153.285 309.187C134.838 327.56 129.5 348.613 129.5 359.333C129.5 364.764 130.867 368.936 132.996 372.116C135.117 375.285 137.935 377.379 140.706 378.759C143.472 380.137 146.219 380.818 148.262 381.157C149.287 381.327 150.145 381.413 150.752 381.456C151.056 381.477 151.298 381.489 151.467 381.494C151.552 381.497 151.619 381.498 151.666 381.499L151.723 381.5L151.74 381.5L151.746 381.5H151.748C151.749 381.5 151.75 381.5 151.75 380ZM340.927 325.924C353.468 338.414 357.1 351.887 357.666 357.751H153.338C153.918 351.879 157.537 338.41 170.073 325.924C183.268 312.782 208.298 298.833 255.5 298.833C302.681 298.833 327.732 312.782 340.927 325.924Z" fill="black"/>
</svg>
