<?xml version="1.0" standalone="no"?>
<!DOCTYPE svg PUBLIC "-//W3C//DTD SVG 20010904//EN"
 "http://www.w3.org/TR/2001/REC-SVG-20010904/DTD/svg10.dtd">
<svg version="1.0" xmlns="http://www.w3.org/2000/svg"
 width="512.000000pt" height="512.000000pt" viewBox="0 0 512.000000 512.000000"
 preserveAspectRatio="xMidYMid meet">

<g transform="translate(0.000000,512.000000) scale(0.100000,-0.100000)"
fill="#000000" stroke="none">
<path d="M2440 5104 c-138 -30 -193 -64 -455 -283 l-180 -151 -483 0 c-524 0
-527 0 -570 -55 -22 -27 -22 -33 -22 -434 l-1 -406 -334 -342 -335 -342 0
-1274 c0 -855 3 -1293 11 -1333 5 -32 30 -100 54 -149 56 -117 141 -205 255
-265 144 -74 -6 -70 2176 -70 1366 0 1978 3 2020 11 79 14 208 76 268 128 104
90 183 223 205 345 8 41 11 456 11 1334 l0 1275 -102 106 c-56 58 -209 214
-340 346 l-238 240 -2 406 c-3 391 -4 408 -23 429 -44 49 -52 50 -561 50
l-476 0 -172 143 c-224 188 -281 229 -360 260 -115 47 -229 57 -346 31z m272
-262 c35 -18 101 -63 146 -102 l84 -70 -382 0 -382 0 74 61 c146 123 211 152
325 146 56 -3 87 -11 135 -35z m1428 -1334 l-1 -923 -665 -495 c-366 -272
-692 -512 -725 -532 -85 -52 -174 -67 -265 -44 -37 9 -85 26 -105 39 -21 12
-346 252 -723 532 l-686 510 0 918 0 917 1585 0 1585 0 0 -922z m620 -450 c0
-6 -330 -259 -367 -282 -10 -6 -13 63 -13 331 l0 338 190 -190 c105 -104 190
-193 190 -197z m-4034 -275 c-6 -6 -366 265 -366 275 0 4 82 89 183 190 l182
182 3 -321 c1 -177 0 -324 -2 -326z m567 -723 c504 -377 943 -700 974 -718 97
-54 174 -74 293 -74 88 0 118 4 183 26 43 14 104 42 134 62 41 26 1664 1234
1911 1422 l32 25 -2 -1149 -3 -1149 -26 -55 c-29 -61 -80 -118 -140 -156 -91
-57 18 -54 -2115 -52 l-1959 3 -65 31 c-70 34 -118 76 -157 138 -55 86 -53 42
-53 1259 l0 1129 38 -29 c21 -15 451 -336 955 -713z"/>
<path d="M1965 3916 c-251 -59 -441 -267 -499 -549 -21 -98 -21 -276 0 -375
50 -242 164 -443 363 -642 165 -164 335 -278 576 -388 139 -63 175 -63 317 2
225 102 415 231 573 390 190 191 314 416 362 655 21 111 19 298 -6 391 -91
342 -350 547 -666 526 -132 -9 -244 -43 -365 -111 l-55 -31 -91 46 c-51 26
-129 57 -175 70 -104 28 -252 35 -334 16z m295 -254 c70 -24 122 -51 201 -102
87 -56 118 -54 218 10 192 123 359 150 506 82 156 -73 246 -242 246 -460 0
-111 -10 -170 -45 -272 -81 -231 -274 -453 -536 -616 -90 -56 -267 -144 -290
-144 -28 0 -251 116 -347 180 -111 74 -263 215 -331 308 -67 89 -125 199 -157
297 -36 107 -46 297 -20 395 45 176 141 287 290 337 54 18 194 10 265 -15z"/>
</g>
</svg>
