<svg width="533" height="140" viewBox="0 0 533 140" fill="none" xmlns="http://www.w3.org/2000/svg">
<path d="M85.8949 22.2865C93.6705 27.8197 100.863 34.829 106.786 43.0389C126.807 70.7803 124.766 101.706 102.226 112.117C97.5203 114.292 92.293 115.4 86.783 115.539" stroke="black" stroke-width="11" stroke-linecap="round" stroke-linejoin="round"/>
<path d="M106.786 43.0389C126.807 70.7803 124.766 101.706 102.226 112.117C79.6853 122.528 45.1862 108.483 25.1653 80.7389C5.14441 52.9946 7.18529 22.0719 29.7255 11.6609C52.2658 1.24993 86.7685 15.2975 106.786 43.0389Z" stroke="#F96CB3" stroke-width="11" stroke-linecap="round" stroke-linejoin="round"/>
<path d="M65.9755 43.0389C45.9547 70.7803 47.9955 101.706 70.5358 112.117C93.076 122.528 127.579 108.48 147.6 80.7389C167.621 52.9975 165.58 22.0719 143.036 11.6609C120.503 1.24993 85.9964 15.2975 65.9755 43.0389Z" stroke="#9E0050" stroke-width="11" stroke-linecap="round" stroke-linejoin="round"/>
<path d="M203.024 70C201.36 70 200.251 69.1253 199.696 67.376L186.832 24.624C186.405 23.216 186.427 22.1067 186.896 21.296C187.408 20.4427 188.219 20.016 189.328 20.016C190.053 20.016 190.715 20.2293 191.312 20.656C191.909 21.04 192.336 21.6587 192.592 22.512L203.088 58.992L212.752 22.896C212.923 22.256 213.307 21.7227 213.904 21.296C214.501 20.8693 215.184 20.656 215.952 20.656C216.635 20.656 217.275 20.848 217.872 21.232C218.512 21.5733 218.917 22.1067 219.088 22.832L228.88 59.248L239.504 22.192C239.931 20.7413 241.019 20.016 242.768 20.016C243.963 20.016 244.731 20.4853 245.072 21.424C245.413 22.32 245.413 23.3867 245.072 24.624L232.208 67.312C231.909 68.1227 231.461 68.784 230.864 69.296C230.309 69.7653 229.648 70 228.88 70C228.069 70 227.365 69.744 226.768 69.232C226.213 68.72 225.808 68.1013 225.552 67.376L216.016 30.512L206.352 67.312C206.053 68.1227 205.605 68.784 205.008 69.296C204.453 69.7653 203.792 70 203.024 70ZM261.208 70.256C257.667 70.256 254.509 69.5093 251.736 68.016C249.005 66.48 246.851 64.3893 245.272 61.744C243.736 59.056 242.968 55.984 242.968 52.528C242.968 49.0293 243.693 45.9573 245.144 43.312C246.637 40.624 248.685 38.5333 251.288 37.04C253.891 35.504 256.877 34.736 260.248 34.736C263.576 34.736 266.435 35.4827 268.824 36.976C271.213 38.4267 273.027 40.4533 274.264 43.056C275.544 45.616 276.184 48.5813 276.184 51.952C276.184 52.7627 275.907 53.4453 275.352 54C274.797 54.512 274.093 54.768 273.24 54.768H248.92C249.389 57.712 250.733 60.1227 252.952 62C255.213 63.8347 257.965 64.752 261.208 64.752C262.531 64.752 263.875 64.5173 265.24 64.048C266.648 63.536 267.779 62.96 268.632 62.32C269.272 61.8507 269.955 61.616 270.68 61.616C271.448 61.5733 272.109 61.7867 272.664 62.256C273.389 62.896 273.773 63.6 273.816 64.368C273.859 65.136 273.517 65.7973 272.792 66.352C271.341 67.504 269.528 68.4427 267.352 69.168C265.219 69.8933 263.171 70.256 261.208 70.256ZM260.248 40.24C257.091 40.24 254.552 41.1147 252.632 42.864C250.712 44.6133 249.496 46.8747 248.984 49.648H270.296C269.912 46.9173 268.867 44.6773 267.16 42.928C265.453 41.136 263.149 40.24 260.248 40.24ZM295.1 69.936C293.777 69.936 292.753 69.232 292.028 67.824L278.46 39.216C278.119 38.4907 278.076 37.7867 278.332 37.104C278.631 36.3787 279.185 35.824 279.996 35.44C280.721 35.056 281.447 34.992 282.172 35.248C282.94 35.504 283.516 35.9947 283.9 36.72L295.036 60.72L306.044 36.72C306.428 35.9947 307.004 35.504 307.772 35.248C308.583 34.992 309.393 35.056 310.204 35.44C310.972 35.7813 311.484 36.3147 311.74 37.04C311.996 37.7653 311.953 38.4907 311.612 39.216L298.044 67.824C297.404 69.232 296.423 69.936 295.1 69.936ZM322.227 70C321.288 70 320.499 69.7013 319.859 69.104C319.261 68.464 318.963 67.6747 318.963 66.736V38.256C318.963 37.2747 319.261 36.4853 319.859 35.888C320.499 35.2907 321.288 34.992 322.227 34.992C323.208 34.992 323.997 35.2907 324.595 35.888C325.192 36.4853 325.491 37.2747 325.491 38.256V66.736C325.491 67.6747 325.192 68.464 324.595 69.104C323.997 69.7013 323.208 70 322.227 70ZM322.227 29.296C321.075 29.296 320.072 28.8907 319.219 28.08C318.408 27.2267 318.003 26.224 318.003 25.072C318.003 23.92 318.408 22.9387 319.219 22.128C320.072 21.2747 321.075 20.848 322.227 20.848C323.379 20.848 324.36 21.2747 325.171 22.128C326.024 22.9387 326.451 23.92 326.451 25.072C326.451 26.224 326.024 27.2267 325.171 28.08C324.36 28.8907 323.379 29.296 322.227 29.296ZM350.371 70C348.238 70 346.318 69.4667 344.611 68.4C342.904 67.2907 341.56 65.7973 340.579 63.92C339.598 62.0427 339.107 59.9307 339.107 57.584V41.776H336.163C335.267 41.776 334.542 41.52 333.987 41.008C333.432 40.496 333.155 39.856 333.155 39.088C333.155 38.2347 333.432 37.552 333.987 37.04C334.542 36.528 335.267 36.272 336.163 36.272H339.107V27.056C339.107 26.1173 339.406 25.3493 340.003 24.752C340.6 24.1547 341.368 23.856 342.307 23.856C343.246 23.856 344.014 24.1547 344.611 24.752C345.208 25.3493 345.507 26.1173 345.507 27.056V36.272H350.947C351.843 36.272 352.568 36.528 353.123 37.04C353.678 37.552 353.955 38.2347 353.955 39.088C353.955 39.856 353.678 40.496 353.123 41.008C352.568 41.52 351.843 41.776 350.947 41.776H345.507V57.584C345.507 59.2907 345.976 60.72 346.915 61.872C347.854 63.024 349.006 63.6 350.371 63.6H352.547C353.315 63.6 353.955 63.8987 354.467 64.496C355.022 65.0933 355.299 65.8613 355.299 66.8C355.299 67.7387 354.936 68.5067 354.211 69.104C353.528 69.7013 352.632 70 351.523 70H350.371ZM377.915 70.256C374.8 70.256 372.005 69.488 369.531 67.952C367.056 66.3733 365.093 64.2613 363.643 61.616C362.235 58.928 361.531 55.8987 361.531 52.528C361.531 49.1573 362.299 46.128 363.835 43.44C365.413 40.752 367.525 38.64 370.171 37.104C372.859 35.5253 375.867 34.736 379.195 34.736C382.523 34.736 385.509 35.5253 388.155 37.104C390.8 38.64 392.891 40.752 394.427 43.44C396.005 46.128 396.795 49.1573 396.795 52.528V66.8C396.795 67.7387 396.475 68.528 395.835 69.168C395.237 69.7653 394.469 70.064 393.531 70.064C392.592 70.064 391.803 69.7653 391.163 69.168C390.565 68.528 390.267 67.7387 390.267 66.8V64.432C388.773 66.224 386.96 67.6533 384.827 68.72C382.736 69.744 380.432 70.256 377.915 70.256ZM379.195 64.496C381.371 64.496 383.312 63.984 385.019 62.96C386.725 61.8933 388.069 60.464 389.051 58.672C390.032 56.8373 390.523 54.7893 390.523 52.528C390.523 50.224 390.032 48.176 389.051 46.384C388.069 44.5493 386.725 43.12 385.019 42.096C383.312 41.0293 381.371 40.496 379.195 40.496C377.061 40.496 375.12 41.0293 373.371 42.096C371.664 43.12 370.299 44.5493 369.275 46.384C368.293 48.176 367.803 50.224 367.803 52.528C367.803 54.7893 368.293 56.8373 369.275 58.672C370.299 60.464 371.664 61.8933 373.371 62.96C375.12 63.984 377.061 64.496 379.195 64.496ZM419.246 70C417.113 70 415.193 69.4667 413.486 68.4C411.779 67.2907 410.435 65.7973 409.454 63.92C408.473 62.0427 407.982 59.9307 407.982 57.584V41.776H405.038C404.142 41.776 403.417 41.52 402.862 41.008C402.307 40.496 402.03 39.856 402.03 39.088C402.03 38.2347 402.307 37.552 402.862 37.04C403.417 36.528 404.142 36.272 405.038 36.272H407.982V27.056C407.982 26.1173 408.281 25.3493 408.878 24.752C409.475 24.1547 410.243 23.856 411.182 23.856C412.121 23.856 412.889 24.1547 413.486 24.752C414.083 25.3493 414.382 26.1173 414.382 27.056V36.272H419.822C420.718 36.272 421.443 36.528 421.998 37.04C422.553 37.552 422.83 38.2347 422.83 39.088C422.83 39.856 422.553 40.496 421.998 41.008C421.443 41.52 420.718 41.776 419.822 41.776H414.382V57.584C414.382 59.2907 414.851 60.72 415.79 61.872C416.729 63.024 417.881 63.6 419.246 63.6H421.422C422.19 63.6 422.83 63.8987 423.342 64.496C423.897 65.0933 424.174 65.8613 424.174 66.8C424.174 67.7387 423.811 68.5067 423.086 69.104C422.403 69.7013 421.507 70 420.398 70H419.246ZM436.102 70C435.163 70 434.374 69.7013 433.734 69.104C433.136 68.464 432.838 67.6747 432.838 66.736V38.256C432.838 37.2747 433.136 36.4853 433.734 35.888C434.374 35.2907 435.163 34.992 436.102 34.992C437.083 34.992 437.872 35.2907 438.47 35.888C439.067 36.4853 439.366 37.2747 439.366 38.256V66.736C439.366 67.6747 439.067 68.464 438.47 69.104C437.872 69.7013 437.083 70 436.102 70ZM436.102 29.296C434.95 29.296 433.947 28.8907 433.094 28.08C432.283 27.2267 431.878 26.224 431.878 25.072C431.878 23.92 432.283 22.9387 433.094 22.128C433.947 21.2747 434.95 20.848 436.102 20.848C437.254 20.848 438.235 21.2747 439.046 22.128C439.899 22.9387 440.326 23.92 440.326 25.072C440.326 26.224 439.899 27.2267 439.046 28.08C438.235 28.8907 437.254 29.296 436.102 29.296ZM467.382 70.256C463.926 70.256 460.875 69.5093 458.23 68.016C455.585 66.48 453.494 64.3893 451.958 61.744C450.465 59.056 449.718 55.984 449.718 52.528C449.718 49.0293 450.465 45.9573 451.958 43.312C453.494 40.624 455.585 38.5333 458.23 37.04C460.875 35.504 463.926 34.736 467.382 34.736C470.795 34.736 473.825 35.504 476.47 37.04C479.115 38.5333 481.185 40.624 482.678 43.312C484.214 45.9573 484.982 49.0293 484.982 52.528C484.982 55.984 484.235 59.056 482.742 61.744C481.249 64.3893 479.179 66.48 476.534 68.016C473.889 69.5093 470.838 70.256 467.382 70.256ZM467.382 64.496C469.601 64.496 471.563 63.984 473.27 62.96C474.977 61.936 476.299 60.528 477.238 58.736C478.219 56.944 478.71 54.8747 478.71 52.528C478.71 50.1813 478.219 48.112 477.238 46.32C476.299 44.4853 474.977 43.056 473.27 42.032C471.563 41.008 469.601 40.496 467.382 40.496C465.163 40.496 463.201 41.008 461.494 42.032C459.787 43.056 458.443 44.4853 457.462 46.32C456.481 48.112 455.99 50.1813 455.99 52.528C455.99 54.8747 456.481 56.944 457.462 58.736C458.443 60.528 459.787 61.936 461.494 62.96C463.201 63.984 465.163 64.496 467.382 64.496ZM497.962 70.064C497.023 70.064 496.234 69.7653 495.594 69.168C494.996 68.528 494.698 67.7387 494.698 66.8V38.256C494.698 37.2747 494.996 36.4853 495.594 35.888C496.234 35.2907 497.023 34.992 497.962 34.992C498.943 34.992 499.732 35.2907 500.33 35.888C500.927 36.4853 501.226 37.2747 501.226 38.256V38.96C502.548 37.6373 504.148 36.592 506.026 35.824C507.903 35.056 509.93 34.672 512.106 34.672C515.05 34.672 517.674 35.312 519.978 36.592C522.324 37.8293 524.159 39.664 525.482 42.096C526.847 44.528 527.53 47.5147 527.53 51.056V66.8C527.53 67.7387 527.21 68.528 526.569 69.168C525.972 69.7653 525.204 70.064 524.266 70.064C523.327 70.064 522.538 69.7653 521.898 69.168C521.3 68.528 521.002 67.7387 521.002 66.8V51.056C521.002 47.4293 520.02 44.784 518.058 43.12C516.138 41.4133 513.727 40.56 510.826 40.56C509.034 40.56 507.412 40.9227 505.962 41.648C504.511 42.3733 503.359 43.3547 502.506 44.592C501.652 45.7867 501.226 47.1733 501.226 48.752V66.8C501.226 67.7387 500.927 68.528 500.33 69.168C499.732 69.7653 498.943 70.064 497.962 70.064Z" fill="black"/>
<path d="M211.16 106.144C209.88 106.144 208.728 105.856 207.704 105.28C206.696 104.688 205.896 103.888 205.304 102.88C204.728 101.856 204.44 100.712 204.44 99.448C204.44 98.168 204.728 97.024 205.304 96.016C205.896 94.992 206.696 94.192 207.704 93.616C208.728 93.024 209.88 92.728 211.16 92.728C212.44 92.728 213.584 93.024 214.592 93.616C215.6 94.192 216.392 94.992 216.968 96.016C217.56 97.024 217.856 98.168 217.856 99.448C217.856 100.712 217.56 101.856 216.968 102.88C216.392 103.888 215.6 104.688 214.592 105.28C213.584 105.856 212.44 106.144 211.16 106.144ZM211.16 104.8C212.168 104.8 213.064 104.568 213.848 104.104C214.648 103.624 215.272 102.984 215.72 102.184C216.184 101.368 216.416 100.456 216.416 99.448C216.416 98.424 216.184 97.512 215.72 96.712C215.272 95.896 214.648 95.256 213.848 94.792C213.064 94.312 212.168 94.072 211.16 94.072C210.168 94.072 209.272 94.312 208.472 94.792C207.672 95.256 207.04 95.896 206.576 96.712C206.112 97.512 205.88 98.424 205.88 99.448C205.88 100.456 206.112 101.368 206.576 102.184C207.04 102.984 207.672 103.624 208.472 104.104C209.272 104.568 210.168 104.8 211.16 104.8ZM222.169 106C221.961 106 221.785 105.936 221.641 105.808C221.513 105.664 221.449 105.488 221.449 105.28V93.592C221.449 93.368 221.513 93.192 221.641 93.064C221.785 92.936 221.961 92.872 222.169 92.872C222.393 92.872 222.569 92.936 222.697 93.064C222.825 93.192 222.889 93.368 222.889 93.592V94.84C223.417 94.184 224.073 93.664 224.857 93.28C225.657 92.896 226.521 92.704 227.449 92.704C228.601 92.704 229.633 92.944 230.545 93.424C231.473 93.888 232.201 94.576 232.729 95.488C233.257 96.384 233.521 97.496 233.521 98.824V105.28C233.521 105.488 233.449 105.664 233.305 105.808C233.177 105.936 233.009 106 232.801 106C232.593 106 232.417 105.936 232.273 105.808C232.145 105.664 232.081 105.488 232.081 105.28V98.824C232.081 97.768 231.873 96.896 231.457 96.208C231.057 95.52 230.505 95.008 229.801 94.672C229.113 94.32 228.329 94.144 227.449 94.144C226.585 94.144 225.809 94.312 225.121 94.648C224.433 94.968 223.889 95.416 223.489 95.992C223.089 96.568 222.889 97.216 222.889 97.936V105.28C222.889 105.488 222.825 105.664 222.697 105.808C222.569 105.936 222.393 106 222.169 106ZM240.238 106C239.326 106 238.574 105.632 237.982 104.896C237.406 104.16 237.118 103.208 237.118 102.04V87.976C237.118 87.752 237.182 87.576 237.31 87.448C237.454 87.32 237.63 87.256 237.838 87.256C238.062 87.256 238.238 87.32 238.366 87.448C238.494 87.576 238.558 87.752 238.558 87.976V102.04C238.558 102.776 238.71 103.384 239.014 103.864C239.334 104.328 239.742 104.56 240.238 104.56H240.838C241.238 104.56 241.438 104.8 241.438 105.28C241.438 105.488 241.374 105.664 241.246 105.808C241.118 105.936 240.942 106 240.718 106H240.238ZM245.266 106C245.058 106 244.882 105.936 244.738 105.808C244.61 105.664 244.546 105.488 244.546 105.28V93.592C244.546 93.368 244.61 93.192 244.738 93.064C244.882 92.936 245.058 92.872 245.266 92.872C245.49 92.872 245.666 92.936 245.794 93.064C245.922 93.192 245.986 93.368 245.986 93.592V105.28C245.986 105.488 245.922 105.664 245.794 105.808C245.666 105.936 245.49 106 245.266 106ZM245.242 90.112C244.938 90.112 244.674 90.008 244.45 89.8C244.242 89.576 244.138 89.304 244.138 88.984C244.138 88.616 244.25 88.344 244.474 88.168C244.714 87.976 244.978 87.88 245.266 87.88C245.538 87.88 245.786 87.976 246.01 88.168C246.25 88.344 246.37 88.616 246.37 88.984C246.37 89.304 246.258 89.576 246.034 89.8C245.826 90.008 245.562 90.112 245.242 90.112ZM251.513 106C251.305 106 251.129 105.936 250.985 105.808C250.857 105.664 250.793 105.488 250.793 105.28V93.592C250.793 93.368 250.857 93.192 250.985 93.064C251.129 92.936 251.305 92.872 251.513 92.872C251.737 92.872 251.913 92.936 252.041 93.064C252.169 93.192 252.233 93.368 252.233 93.592V94.84C252.761 94.184 253.417 93.664 254.201 93.28C255.001 92.896 255.865 92.704 256.793 92.704C257.945 92.704 258.977 92.944 259.889 93.424C260.817 93.888 261.545 94.576 262.073 95.488C262.601 96.384 262.865 97.496 262.865 98.824V105.28C262.865 105.488 262.793 105.664 262.649 105.808C262.521 105.936 262.353 106 262.145 106C261.937 106 261.761 105.936 261.617 105.808C261.489 105.664 261.425 105.488 261.425 105.28V98.824C261.425 97.768 261.217 96.896 260.801 96.208C260.401 95.52 259.849 95.008 259.145 94.672C258.457 94.32 257.673 94.144 256.793 94.144C255.929 94.144 255.153 94.312 254.465 94.648C253.777 94.968 253.233 95.416 252.833 95.992C252.433 96.568 252.233 97.216 252.233 97.936V105.28C252.233 105.488 252.169 105.664 252.041 105.808C251.913 105.936 251.737 106 251.513 106ZM272.749 106.12C271.485 106.12 270.357 105.84 269.365 105.28C268.389 104.704 267.621 103.912 267.061 102.904C266.501 101.896 266.221 100.744 266.221 99.448C266.221 98.136 266.485 96.984 267.013 95.992C267.541 94.984 268.269 94.192 269.197 93.616C270.125 93.04 271.189 92.752 272.389 92.752C273.573 92.752 274.621 93.032 275.533 93.592C276.445 94.136 277.157 94.896 277.669 95.872C278.181 96.832 278.437 97.944 278.437 99.208C278.437 99.416 278.373 99.584 278.245 99.712C278.117 99.824 277.949 99.88 277.741 99.88H267.685C267.733 100.84 267.981 101.688 268.429 102.424C268.877 103.16 269.469 103.736 270.205 104.152C270.957 104.568 271.805 104.776 272.749 104.776C273.373 104.776 273.997 104.672 274.621 104.464C275.261 104.24 275.765 103.952 276.133 103.6C276.261 103.472 276.413 103.408 276.589 103.408C276.781 103.392 276.941 103.44 277.069 103.552C277.245 103.696 277.333 103.856 277.333 104.032C277.349 104.208 277.277 104.368 277.117 104.512C276.605 104.976 275.933 105.36 275.101 105.664C274.285 105.968 273.501 106.12 272.749 106.12ZM272.389 94.096C271.557 94.096 270.805 94.288 270.133 94.672C269.461 95.056 268.909 95.592 268.477 96.28C268.061 96.952 267.805 97.736 267.709 98.632H277.045C276.933 97.288 276.453 96.2 275.605 95.368C274.757 94.52 273.685 94.096 272.389 94.096ZM291.526 106C291.174 106 290.95 105.848 290.854 105.544L286.966 93.904C286.822 93.216 287.006 92.872 287.518 92.872C287.646 92.872 287.774 92.912 287.902 92.992C288.03 93.056 288.126 93.16 288.19 93.304L291.574 103.528L294.694 93.448C294.806 93.064 295.046 92.872 295.414 92.872C295.766 92.872 296.006 93.064 296.134 93.448L299.278 103.336L302.614 93.304C302.742 93.016 302.966 92.872 303.286 92.872C303.574 92.872 303.766 92.984 303.862 93.208C303.974 93.432 303.974 93.664 303.862 93.904L299.997 105.544C299.902 105.848 299.67 106 299.302 106C299.142 106 298.998 105.96 298.87 105.88C298.742 105.8 298.662 105.688 298.63 105.544L295.366 95.392L292.198 105.544C292.086 105.848 291.862 106 291.526 106ZM311.913 106.12C310.649 106.12 309.521 105.84 308.529 105.28C307.553 104.704 306.785 103.912 306.225 102.904C305.665 101.896 305.385 100.744 305.385 99.448C305.385 98.136 305.649 96.984 306.177 95.992C306.705 94.984 307.433 94.192 308.361 93.616C309.289 93.04 310.353 92.752 311.553 92.752C312.737 92.752 313.785 93.032 314.697 93.592C315.609 94.136 316.321 94.896 316.833 95.872C317.345 96.832 317.601 97.944 317.601 99.208C317.601 99.416 317.537 99.584 317.409 99.712C317.281 99.824 317.113 99.88 316.905 99.88H306.849C306.897 100.84 307.145 101.688 307.593 102.424C308.041 103.16 308.633 103.736 309.369 104.152C310.121 104.568 310.969 104.776 311.913 104.776C312.537 104.776 313.161 104.672 313.785 104.464C314.425 104.24 314.929 103.952 315.297 103.6C315.425 103.472 315.577 103.408 315.753 103.408C315.945 103.392 316.105 103.44 316.233 103.552C316.409 103.696 316.497 103.856 316.497 104.032C316.513 104.208 316.441 104.368 316.281 104.512C315.769 104.976 315.097 105.36 314.265 105.664C313.449 105.968 312.665 106.12 311.913 106.12ZM311.553 94.096C310.721 94.096 309.969 94.288 309.297 94.672C308.625 95.056 308.073 95.592 307.641 96.28C307.225 96.952 306.969 97.736 306.873 98.632H316.209C316.097 97.288 315.617 96.2 314.769 95.368C313.921 94.52 312.849 94.096 311.553 94.096ZM326.262 106.144C324.982 106.144 323.83 105.856 322.806 105.28C321.798 104.688 320.998 103.888 320.406 102.88C319.83 101.856 319.542 100.704 319.542 99.424C319.542 98.144 319.83 97 320.406 95.992C320.998 94.984 321.798 94.192 322.806 93.616C323.83 93.024 324.982 92.728 326.262 92.728C327.414 92.728 328.446 92.976 329.358 93.472C330.286 93.968 331.006 94.632 331.518 95.464V87.976C331.518 87.752 331.582 87.576 331.71 87.448C331.854 87.32 332.03 87.256 332.238 87.256C332.462 87.256 332.638 87.32 332.766 87.448C332.894 87.576 332.958 87.752 332.958 87.976V99.568C332.942 100.816 332.638 101.936 332.046 102.928C331.454 103.92 330.654 104.704 329.646 105.28C328.654 105.856 327.526 106.144 326.262 106.144ZM326.262 104.8C327.27 104.8 328.166 104.568 328.95 104.104C329.75 103.624 330.374 102.984 330.822 102.184C331.286 101.368 331.518 100.448 331.518 99.424C331.518 98.4 331.286 97.488 330.822 96.688C330.374 95.888 329.75 95.256 328.95 94.792C328.166 94.312 327.27 94.072 326.262 94.072C325.27 94.072 324.374 94.312 323.574 94.792C322.774 95.256 322.142 95.888 321.678 96.688C321.214 97.488 320.982 98.4 320.982 99.424C320.982 100.448 321.214 101.368 321.678 102.184C322.142 102.984 322.774 103.624 323.574 104.104C324.374 104.568 325.27 104.8 326.262 104.8ZM343.277 106.144C341.997 106.144 340.845 105.856 339.821 105.28C338.813 104.688 338.013 103.888 337.421 102.88C336.845 101.856 336.557 100.704 336.557 99.424C336.557 98.144 336.845 97 337.421 95.992C338.013 94.984 338.813 94.192 339.821 93.616C340.845 93.024 341.997 92.728 343.277 92.728C344.429 92.728 345.461 92.976 346.373 93.472C347.301 93.968 348.021 94.632 348.533 95.464V87.976C348.533 87.752 348.597 87.576 348.725 87.448C348.869 87.32 349.045 87.256 349.253 87.256C349.477 87.256 349.653 87.32 349.781 87.448C349.909 87.576 349.973 87.752 349.973 87.976V99.568C349.957 100.816 349.653 101.936 349.061 102.928C348.469 103.92 347.669 104.704 346.661 105.28C345.669 105.856 344.541 106.144 343.277 106.144ZM343.277 104.8C344.285 104.8 345.181 104.568 345.965 104.104C346.765 103.624 347.389 102.984 347.837 102.184C348.301 101.368 348.533 100.448 348.533 99.424C348.533 98.4 348.301 97.488 347.837 96.688C347.389 95.888 346.765 95.256 345.965 94.792C345.181 94.312 344.285 94.072 343.277 94.072C342.285 94.072 341.389 94.312 340.589 94.792C339.789 95.256 339.157 95.888 338.693 96.688C338.229 97.488 337.997 98.4 337.997 99.424C337.997 100.448 338.229 101.368 338.693 102.184C339.157 102.984 339.789 103.624 340.589 104.104C341.389 104.568 342.285 104.8 343.277 104.8ZM355.493 106C355.285 106 355.109 105.936 354.965 105.808C354.837 105.664 354.773 105.488 354.773 105.28V93.592C354.773 93.368 354.837 93.192 354.965 93.064C355.109 92.936 355.285 92.872 355.493 92.872C355.717 92.872 355.893 92.936 356.021 93.064C356.149 93.192 356.213 93.368 356.213 93.592V105.28C356.213 105.488 356.149 105.664 356.021 105.808C355.893 105.936 355.717 106 355.493 106ZM355.469 90.112C355.165 90.112 354.901 90.008 354.677 89.8C354.469 89.576 354.365 89.304 354.365 88.984C354.365 88.616 354.477 88.344 354.701 88.168C354.941 87.976 355.205 87.88 355.493 87.88C355.765 87.88 356.013 87.976 356.237 88.168C356.477 88.344 356.597 88.616 356.597 88.984C356.597 89.304 356.485 89.576 356.261 89.8C356.053 90.008 355.789 90.112 355.469 90.112ZM361.739 106C361.531 106 361.355 105.936 361.211 105.808C361.083 105.664 361.019 105.488 361.019 105.28V93.592C361.019 93.368 361.083 93.192 361.211 93.064C361.355 92.936 361.531 92.872 361.739 92.872C361.963 92.872 362.139 92.936 362.267 93.064C362.395 93.192 362.459 93.368 362.459 93.592V94.84C362.987 94.184 363.643 93.664 364.427 93.28C365.227 92.896 366.091 92.704 367.019 92.704C368.171 92.704 369.203 92.944 370.115 93.424C371.043 93.888 371.771 94.576 372.299 95.488C372.827 96.384 373.091 97.496 373.091 98.824V105.28C373.091 105.488 373.019 105.664 372.875 105.808C372.747 105.936 372.579 106 372.371 106C372.163 106 371.987 105.936 371.843 105.808C371.715 105.664 371.651 105.488 371.651 105.28V98.824C371.651 97.768 371.443 96.896 371.027 96.208C370.627 95.52 370.075 95.008 369.371 94.672C368.683 94.32 367.899 94.144 367.019 94.144C366.155 94.144 365.379 94.312 364.691 94.648C364.003 94.968 363.459 95.416 363.059 95.992C362.659 96.568 362.459 97.216 362.459 97.936V105.28C362.459 105.488 362.395 105.664 362.267 105.808C362.139 105.936 361.963 106 361.739 106ZM383.168 106.144C381.856 106.144 380.696 105.856 379.688 105.28C378.68 104.704 377.888 103.912 377.312 102.904C376.736 101.896 376.448 100.744 376.448 99.448C376.448 98.136 376.744 96.976 377.336 95.968C377.928 94.96 378.728 94.168 379.736 93.592C380.76 93.016 381.904 92.728 383.168 92.728C384.48 92.728 385.632 93.016 386.624 93.592C387.632 94.168 388.424 94.96 389 95.968C389.576 96.976 389.864 98.136 389.864 99.448V104.152C389.864 105.448 389.576 106.616 389 107.656C388.424 108.696 387.64 109.512 386.648 110.104C385.656 110.712 384.528 111.016 383.264 111.016C381.936 111.016 380.8 110.768 379.856 110.272C378.928 109.776 378.16 109.144 377.552 108.376C377.424 108.216 377.36 108.048 377.36 107.872C377.36 107.696 377.44 107.552 377.6 107.44C377.76 107.312 377.944 107.264 378.152 107.296C378.376 107.328 378.544 107.432 378.656 107.608C379.152 108.2 379.784 108.688 380.552 109.072C381.32 109.472 382.224 109.672 383.264 109.672C384.256 109.672 385.136 109.432 385.904 108.952C386.688 108.472 387.304 107.808 387.752 106.96C388.2 106.128 388.424 105.192 388.424 104.152V103.096C387.96 104.024 387.272 104.768 386.36 105.328C385.448 105.872 384.384 106.144 383.168 106.144ZM383.168 104.8C384.192 104.8 385.096 104.576 385.88 104.128C386.68 103.664 387.304 103.032 387.752 102.232C388.2 101.416 388.424 100.488 388.424 99.448C388.424 98.392 388.2 97.464 387.752 96.664C387.304 95.848 386.68 95.216 385.88 94.768C385.096 94.304 384.192 94.072 383.168 94.072C382.144 94.072 381.232 94.304 380.432 94.768C379.632 95.216 379.008 95.848 378.56 96.664C378.112 97.464 377.888 98.392 377.888 99.448C377.888 100.488 378.112 101.416 378.56 102.232C379.008 103.032 379.632 103.664 380.432 104.128C381.232 104.576 382.144 104.8 383.168 104.8ZM401.688 106C401.48 106 401.304 105.936 401.16 105.808C401.032 105.664 400.968 105.488 400.968 105.28V93.592C400.968 93.368 401.032 93.192 401.16 93.064C401.304 92.936 401.48 92.872 401.688 92.872C401.912 92.872 402.088 92.936 402.216 93.064C402.344 93.192 402.408 93.368 402.408 93.592V105.28C402.408 105.488 402.344 105.664 402.216 105.808C402.088 105.936 401.912 106 401.688 106ZM401.664 90.112C401.36 90.112 401.096 90.008 400.872 89.8C400.664 89.576 400.56 89.304 400.56 88.984C400.56 88.616 400.672 88.344 400.896 88.168C401.136 87.976 401.4 87.88 401.688 87.88C401.96 87.88 402.208 87.976 402.432 88.168C402.672 88.344 402.792 88.616 402.792 88.984C402.792 89.304 402.68 89.576 402.456 89.8C402.248 90.008 401.984 90.112 401.664 90.112ZM407.935 106C407.727 106 407.551 105.936 407.407 105.808C407.279 105.664 407.215 105.488 407.215 105.28V93.592C407.215 93.368 407.279 93.192 407.407 93.064C407.551 92.936 407.727 92.872 407.935 92.872C408.159 92.872 408.335 92.936 408.463 93.064C408.591 93.192 408.655 93.368 408.655 93.592V94.84C409.183 94.184 409.839 93.664 410.623 93.28C411.423 92.896 412.287 92.704 413.215 92.704C414.367 92.704 415.399 92.944 416.311 93.424C417.239 93.888 417.967 94.576 418.495 95.488C419.023 96.384 419.287 97.496 419.287 98.824V105.28C419.287 105.488 419.215 105.664 419.071 105.808C418.943 105.936 418.775 106 418.567 106C418.359 106 418.183 105.936 418.039 105.808C417.911 105.664 417.847 105.488 417.847 105.28V98.824C417.847 97.768 417.639 96.896 417.223 96.208C416.823 95.52 416.271 95.008 415.567 94.672C414.879 94.32 414.095 94.144 413.215 94.144C412.351 94.144 411.575 94.312 410.887 94.648C410.199 94.968 409.655 95.416 409.255 95.992C408.855 96.568 408.655 97.216 408.655 97.936V105.28C408.655 105.488 408.591 105.664 408.463 105.808C408.335 105.936 408.159 106 407.935 106ZM427.149 106.024C426.845 106.024 426.621 105.856 426.477 105.52L421.005 93.808C420.941 93.632 420.941 93.464 421.005 93.304C421.069 93.128 421.189 93 421.365 92.92C421.541 92.84 421.709 92.832 421.869 92.896C422.045 92.96 422.173 93.08 422.253 93.256L427.173 103.912L432.021 93.232C432.101 93.056 432.229 92.936 432.405 92.872C432.597 92.808 432.781 92.816 432.957 92.896C433.133 92.976 433.253 93.104 433.317 93.28C433.397 93.44 433.397 93.608 433.317 93.784L427.917 105.52C427.757 105.856 427.501 106.024 427.149 106.024ZM437.196 106C436.988 106 436.812 105.936 436.668 105.808C436.54 105.664 436.476 105.488 436.476 105.28V93.592C436.476 93.368 436.54 93.192 436.668 93.064C436.812 92.936 436.988 92.872 437.196 92.872C437.42 92.872 437.596 92.936 437.724 93.064C437.852 93.192 437.916 93.368 437.916 93.592V105.28C437.916 105.488 437.852 105.664 437.724 105.808C437.596 105.936 437.42 106 437.196 106ZM437.172 90.112C436.868 90.112 436.604 90.008 436.38 89.8C436.172 89.576 436.068 89.304 436.068 88.984C436.068 88.616 436.18 88.344 436.404 88.168C436.644 87.976 436.908 87.88 437.196 87.88C437.468 87.88 437.716 87.976 437.94 88.168C438.18 88.344 438.3 88.616 438.3 88.984C438.3 89.304 438.188 89.576 437.964 89.8C437.756 90.008 437.492 90.112 437.172 90.112ZM448.099 106C447.219 105.984 446.435 105.784 445.747 105.4C445.059 105 444.523 104.456 444.139 103.768C443.755 103.064 443.562 102.272 443.562 101.392V94.648H441.691C441.499 94.648 441.339 94.592 441.211 94.48C441.099 94.352 441.043 94.192 441.043 94C441.043 93.808 441.099 93.656 441.211 93.544C441.339 93.416 441.499 93.352 441.691 93.352H443.562V89.44C443.562 89.216 443.627 89.04 443.755 88.912C443.899 88.768 444.075 88.696 444.283 88.696C444.507 88.696 444.683 88.768 444.811 88.912C444.955 89.04 445.027 89.216 445.027 89.44V93.352H448.195C448.387 93.352 448.539 93.416 448.651 93.544C448.779 93.656 448.843 93.808 448.843 94C448.843 94.192 448.779 94.352 448.651 94.48C448.539 94.592 448.387 94.648 448.195 94.648H445.027V101.392C445.027 102.32 445.315 103.08 445.891 103.672C446.467 104.248 447.211 104.536 448.123 104.536H448.651C448.875 104.536 449.051 104.608 449.179 104.752C449.323 104.88 449.395 105.056 449.395 105.28C449.395 105.488 449.323 105.664 449.179 105.808C449.051 105.936 448.875 106 448.651 106H448.099ZM458.402 106.144C457.122 106.144 455.97 105.856 454.946 105.28C453.938 104.688 453.138 103.888 452.546 102.88C451.97 101.856 451.682 100.712 451.682 99.448C451.682 98.168 451.97 97.024 452.546 96.016C453.138 94.992 453.938 94.192 454.946 93.616C455.97 93.024 457.122 92.728 458.402 92.728C459.682 92.728 460.826 93.024 461.834 93.616C462.842 94.192 463.634 94.992 464.21 96.016C464.802 97.024 465.098 98.168 465.098 99.448V105.28C465.098 105.488 465.034 105.664 464.906 105.808C464.778 105.936 464.602 106 464.378 106C464.17 106 463.994 105.936 463.85 105.808C463.722 105.664 463.658 105.488 463.658 105.28V103.408C463.13 104.24 462.41 104.904 461.498 105.4C460.586 105.896 459.554 106.144 458.402 106.144ZM458.402 104.8C459.41 104.8 460.306 104.568 461.09 104.104C461.89 103.624 462.514 102.984 462.962 102.184C463.426 101.368 463.658 100.456 463.658 99.448C463.658 98.424 463.426 97.512 462.962 96.712C462.514 95.896 461.89 95.256 461.09 94.792C460.306 94.312 459.41 94.072 458.402 94.072C457.41 94.072 456.514 94.312 455.714 94.792C454.914 95.256 454.282 95.896 453.818 96.712C453.354 97.512 453.122 98.424 453.122 99.448C453.122 100.456 453.354 101.368 453.818 102.184C454.282 102.984 454.914 103.624 455.714 104.104C456.514 104.568 457.41 104.8 458.402 104.8ZM474.067 106C473.187 105.984 472.403 105.784 471.715 105.4C471.027 105 470.491 104.456 470.107 103.768C469.723 103.064 469.531 102.272 469.531 101.392V94.648H467.659C467.467 94.648 467.307 94.592 467.179 94.48C467.067 94.352 467.011 94.192 467.011 94C467.011 93.808 467.067 93.656 467.179 93.544C467.307 93.416 467.467 93.352 467.659 93.352H469.531V89.44C469.531 89.216 469.595 89.04 469.723 88.912C469.867 88.768 470.043 88.696 470.251 88.696C470.475 88.696 470.651 88.768 470.779 88.912C470.923 89.04 470.995 89.216 470.995 89.44V93.352H474.163C474.355 93.352 474.507 93.416 474.619 93.544C474.747 93.656 474.811 93.808 474.811 94C474.811 94.192 474.747 94.352 474.619 94.48C474.507 94.592 474.355 94.648 474.163 94.648H470.995V101.392C470.995 102.32 471.283 103.08 471.859 103.672C472.435 104.248 473.179 104.536 474.091 104.536H474.619C474.843 104.536 475.019 104.608 475.147 104.752C475.291 104.88 475.363 105.056 475.363 105.28C475.363 105.488 475.291 105.664 475.147 105.808C475.019 105.936 474.843 106 474.619 106H474.067ZM479.571 106C479.363 106 479.187 105.936 479.043 105.808C478.915 105.664 478.851 105.488 478.851 105.28V93.592C478.851 93.368 478.915 93.192 479.043 93.064C479.187 92.936 479.363 92.872 479.571 92.872C479.795 92.872 479.971 92.936 480.099 93.064C480.227 93.192 480.291 93.368 480.291 93.592V105.28C480.291 105.488 480.227 105.664 480.099 105.808C479.971 105.936 479.795 106 479.571 106ZM479.547 90.112C479.243 90.112 478.979 90.008 478.755 89.8C478.547 89.576 478.443 89.304 478.443 88.984C478.443 88.616 478.555 88.344 478.779 88.168C479.019 87.976 479.283 87.88 479.571 87.88C479.843 87.88 480.091 87.976 480.315 88.168C480.555 88.344 480.675 88.616 480.675 88.984C480.675 89.304 480.563 89.576 480.339 89.8C480.131 90.008 479.867 90.112 479.547 90.112ZM491.098 106.144C489.818 106.144 488.666 105.856 487.642 105.28C486.634 104.688 485.834 103.888 485.242 102.88C484.666 101.856 484.378 100.712 484.378 99.448C484.378 98.168 484.666 97.024 485.242 96.016C485.834 94.992 486.634 94.192 487.642 93.616C488.666 93.024 489.818 92.728 491.098 92.728C492.378 92.728 493.522 93.024 494.53 93.616C495.538 94.192 496.33 94.992 496.906 96.016C497.498 97.024 497.794 98.168 497.794 99.448C497.794 100.712 497.498 101.856 496.906 102.88C496.33 103.888 495.538 104.688 494.53 105.28C493.522 105.856 492.378 106.144 491.098 106.144ZM491.098 104.8C492.106 104.8 493.002 104.568 493.786 104.104C494.586 103.624 495.21 102.984 495.658 102.184C496.122 101.368 496.354 100.456 496.354 99.448C496.354 98.424 496.122 97.512 495.658 96.712C495.21 95.896 494.586 95.256 493.786 94.792C493.002 94.312 492.106 94.072 491.098 94.072C490.106 94.072 489.21 94.312 488.41 94.792C487.61 95.256 486.978 95.896 486.514 96.712C486.05 97.512 485.818 98.424 485.818 99.448C485.818 100.456 486.05 101.368 486.514 102.184C486.978 102.984 487.61 103.624 488.41 104.104C489.21 104.568 490.106 104.8 491.098 104.8ZM502.107 106C501.899 106 501.723 105.936 501.579 105.808C501.451 105.664 501.387 105.488 501.387 105.28V93.592C501.387 93.368 501.451 93.192 501.579 93.064C501.723 92.936 501.899 92.872 502.107 92.872C502.331 92.872 502.507 92.936 502.635 93.064C502.763 93.192 502.827 93.368 502.827 93.592V94.84C503.355 94.184 504.011 93.664 504.795 93.28C505.595 92.896 506.459 92.704 507.387 92.704C508.539 92.704 509.571 92.944 510.483 93.424C511.411 93.888 512.139 94.576 512.667 95.488C513.195 96.384 513.459 97.496 513.459 98.824V105.28C513.459 105.488 513.387 105.664 513.243 105.808C513.115 105.936 512.947 106 512.739 106C512.531 106 512.355 105.936 512.211 105.808C512.083 105.664 512.019 105.488 512.019 105.28V98.824C512.019 97.768 511.811 96.896 511.395 96.208C510.995 95.52 510.443 95.008 509.739 94.672C509.051 94.32 508.267 94.144 507.387 94.144C506.523 94.144 505.747 94.312 505.059 94.648C504.371 94.968 503.827 95.416 503.427 95.992C503.027 96.568 502.827 97.216 502.827 97.936V105.28C502.827 105.488 502.763 105.664 502.635 105.808C502.507 105.936 502.331 106 502.107 106Z" fill="black"/>
</svg>
